<?xml version="1.0" standalone="no"?>
<!DOCTYPE svg PUBLIC "-//W3C//DTD SVG 20010904//EN"
 "http://www.w3.org/TR/2001/REC-SVG-20010904/DTD/svg10.dtd">
<svg version="1.0" xmlns="http://www.w3.org/2000/svg"
 width="523.000000pt" height="477.000000pt" viewBox="0 0 523.000000 477.000000"
 preserveAspectRatio="xMidYMid meet">

<g transform="translate(0.000000,477.000000) scale(0.100000,-0.100000)"
fill="#000000" stroke="none">
<path d="M978 4100 c-40 -22 -72 -61 -82 -102 -3 -14 -6 -384 -6 -822 l0 -795
-28 -32 -27 -33 -3 -438 c-2 -421 -2 -438 17 -457 19 -19 43 -19 930 -20 895
-1 912 0 931 19 27 27 25 55 -6 79 -23 18 -41 21 -140 21 l-114 0 0 385 c0
404 -1 419 -44 454 -14 12 -16 100 -16 820 l0 807 -22 44 c-62 121 -243 118
-299 -4 -17 -38 -19 -77 -19 -603 0 -309 -3 -564 -7 -566 -5 -3 -188 -7 -408
-9 l-400 -3 -5 580 c-6 642 -3 617 -72 666 -44 32 -130 36 -180 9z m122 -110
c20 -20 20 -33 20 -810 l0 -790 -60 0 -60 0 0 790 c0 777 0 790 20 810 11 11
29 20 40 20 11 0 29 -9 40 -20z m1160 0 c20 -20 20 -33 20 -810 l0 -790 -60 0
-60 0 0 790 c0 777 0 790 20 810 11 11 29 20 40 20 11 0 29 -9 40 -20z m-210
-1315 l0 -55 -410 0 -410 0 0 55 0 55 410 0 410 0 0 -55z m-2 -235 c3 -50 0
-59 -27 -89 l-31 -34 -2 -396 -3 -396 -345 0 -345 0 -5 396 -5 395 -27 33
c-23 26 -28 42 -28 85 0 29 3 56 7 59 4 4 187 6 407 5 l401 -3 3 -55z"/>
<path d="M2994 3005 c-231 -50 -379 -248 -415 -555 -44 -379 107 -790 402
-1094 54 -56 129 -123 168 -151 38 -27 70 -58 70 -67 1 -9 -28 -76 -64 -149
-36 -72 -65 -144 -65 -159 0 -70 39 -131 105 -161 37 -17 74 -19 504 -19 452
0 466 1 508 21 55 27 93 88 93 150 0 35 -15 75 -72 188 l-71 145 22 35 c86
139 111 231 118 431 13 351 -87 650 -307 924 -273 339 -684 529 -996 461z
m616 -264 c313 -206 521 -539 570 -913 l12 -88 -45 -62 c-74 -103 -258 -272
-276 -252 -5 5 -113 178 -241 384 -128 206 -240 381 -248 388 -9 6 -24 12 -34
12 -27 0 -61 -38 -56 -63 3 -12 109 -189 236 -392 127 -204 234 -378 237 -386
14 -37 -294 -139 -420 -139 -24 0 -55 16 -118 61 -289 205 -508 583 -534 921
l-6 77 43 58 c68 89 109 132 189 195 60 48 76 57 86 46 7 -7 49 -73 95 -145
77 -126 84 -133 114 -133 18 0 37 5 44 12 26 26 11 67 -73 201 -47 75 -85 138
-85 140 0 10 178 79 250 97 160 40 171 40 260 -19z"/>
<path d="M1093 1219 c-26 -9 -26 -10 -58 -174 -28 -147 -31 -188 -12 -204 9
-7 131 -11 388 -11 344 -1 375 0 386 16 7 10 13 27 13 38 -1 50 -60 310 -73
324 -26 26 -66 17 -134 -31 -72 -50 -87 -50 -119 -1 -21 32 -67 56 -91 48 -10
-4 -39 -27 -64 -51 l-45 -43 -64 41 c-79 51 -99 59 -127 48z"/>
<path d="M2130 1212 c-18 -15 -28 -46 -51 -158 -33 -159 -35 -196 -14 -214 21
-18 750 -16 771 1 8 6 14 23 14 37 0 47 -52 297 -66 320 -22 35 -62 28 -135
-23 -35 -25 -69 -45 -75 -45 -6 0 -29 20 -51 45 -30 34 -48 45 -70 45 -21 0
-41 -12 -73 -45 -24 -25 -48 -45 -52 -45 -4 0 -42 23 -84 50 -42 28 -80 50
-84 50 -4 0 -18 -8 -30 -18z"/>
</g>
</svg>
