<?xml version="1.0" standalone="no"?>
<!DOCTYPE svg PUBLIC "-//W3C//DTD SVG 20010904//EN"
 "http://www.w3.org/TR/2001/REC-SVG-20010904/DTD/svg10.dtd">
<svg version="1.0" xmlns="http://www.w3.org/2000/svg"
 width="225.000000pt" height="225.000000pt" viewBox="0 0 225.000000 225.000000"
 preserveAspectRatio="xMidYMid meet">

<g transform="translate(0.000000,225.000000) scale(0.100000,-0.100000)"
fill="#000000" stroke="none">
<path d="M825 1761 c-169 -78 -165 -324 7 -395 21 -9 47 -16 59 -16 31 0 20
-8 -20 -15 -194 -34 -234 -310 -58 -402 16 -8 35 -12 43 -9 9 3 12 1 9 -4 -4
-6 41 -10 124 -10 l131 0 0 113 c0 61 3 257 7 435 l6 322 -134 0 c-109 0 -141
-4 -174 -19z"/>
</g>
</svg>
